<?xml version="1.0" encoding="utf-8"?>
<svg xmlns="http://www.w3.org/2000/svg" width="128" height="128" viewBox="0 0 128 128" fill="none">
<g clip-path="url(#clip0_230_2790)">
<path d="M53.6106 115.593C50.3535 118.856 47.201 122.014 44.0426 125.167C40.2747 128.935 36.4835 128.946 32.733 125.202C22.6542 115.129 12.5811 105.056 2.5081 94.9767C-0.841832 91.6267 -0.841832 87.615 2.51971 84.2418C5.76514 80.9848 9.02219 77.7451 12.3837 74.3836C8.04681 72.2529 5.92771 68.9784 7.01919 64.1944C7.75653 60.9722 10.7175 58.4816 13.9281 58.081C17.8354 57.5933 20.7382 59.3176 23.078 63.5674C23.3741 63.3062 23.6644 63.0797 23.9314 62.8127C26.9678 59.7821 29.9927 56.7456 33.0291 53.7208C36.2571 50.5102 40.4605 50.5276 43.7001 53.7498C46.6785 56.7108 49.6394 59.6892 52.6062 62.6559C52.9139 62.9636 53.2448 63.2539 53.5815 63.5674C56.1129 59.1434 59.1319 57.4191 63.0682 58.1042C66.4471 58.6906 69.2397 61.4889 69.8377 64.8737C70.5344 68.7926 68.8043 71.8174 64.3222 74.3894C65.9885 76.044 67.6373 77.6755 69.2746 79.3127C71.0163 81.0486 72.7638 82.7729 74.4823 84.5263C77.4491 87.5511 77.4781 91.6732 74.5172 94.6922C71.5156 97.7576 68.4676 100.771 65.4195 103.784C65.0828 104.121 64.5835 104.295 64.0552 104.603C68.9959 107.744 70.6157 110.693 69.8203 114.554C69.1062 118.043 66.2614 120.65 62.6153 121.167C58.9287 121.689 55.9038 119.849 53.6048 115.587L53.6106 115.593ZM19.7803 67.0277C19.7919 66.8128 19.8035 66.6793 19.8093 66.5458C19.8848 63.759 17.725 61.518 14.9963 61.5586C12.2154 61.5993 10.1311 63.9622 10.3517 66.8245C10.5549 69.4429 12.9875 71.3878 15.7104 71.0336C16.7265 70.9001 17.6147 70.9756 18.114 71.9858C18.6249 73.0192 18.0502 73.7566 17.3477 74.4591C13.2952 78.4941 9.25442 82.5407 5.21359 86.5873C3.0074 88.7935 3.02482 90.4191 5.26004 92.6544C15.246 102.634 25.2319 112.609 35.2179 122.589C37.5808 124.946 39.1368 124.964 41.4707 122.63C45.4825 118.618 49.4943 114.606 53.5003 110.588C54.1969 109.892 54.9169 109.294 55.9677 109.822C56.9721 110.333 57.065 111.198 56.9199 112.22C56.5831 114.56 57.9649 116.696 60.2001 117.41C62.3425 118.095 64.7402 117.126 65.8143 115.14C66.9058 113.126 66.4355 110.705 64.659 109.195C63.5268 108.231 62.2147 107.964 60.7749 108.179C59.666 108.347 58.6674 108.034 58.5106 106.884C58.4236 106.234 58.8532 105.323 59.3467 104.817C63.3759 100.695 67.4748 96.6429 71.5446 92.5673C73.6289 90.4772 73.6289 88.7877 71.5562 86.7093C67.4864 82.6278 63.4107 78.5579 59.3293 74.4881C58.6326 73.7914 58.0288 73.0773 58.5745 72.0264C59.0912 71.0278 59.9331 70.9466 60.9723 71.0975C63.73 71.5097 66.2265 69.3848 66.3601 66.598C66.4936 63.8577 64.1364 61.4889 61.3845 61.5934C58.6035 61.698 56.4438 64.2002 56.8502 66.9522C57.0011 67.9798 56.9663 68.8333 55.9677 69.3674C54.8588 69.9596 54.1273 69.2861 53.4016 68.5604C49.3665 64.5138 45.3199 60.4671 41.2733 56.4263C39.2355 54.3943 37.4182 54.3885 35.3862 56.4205C31.3396 60.4613 27.293 64.5021 23.2521 68.5488C22.5729 69.228 21.8936 69.9073 20.8079 69.4371C19.67 68.9494 19.6119 67.9972 19.7687 67.0335L19.7803 67.0277Z" fill="white"/>
<path d="M104.876 64.2933C101.619 67.5503 98.437 70.7435 95.2438 73.9309C91.5804 77.5885 87.7021 77.5711 84.027 73.9018C80.0152 69.89 76.0034 65.8782 71.9917 61.8723C71.3008 61.1872 70.6621 60.4789 71.1905 59.4164C71.7246 58.3307 72.6419 58.3133 73.7044 58.4526C76.4737 58.8126 78.9296 56.6354 78.9934 53.8545C79.0515 51.0735 76.735 48.8383 73.925 48.9718C71.2137 49.0995 69.0946 51.5844 69.4894 54.2725C69.6461 55.3524 69.5997 56.2464 68.514 56.7632C67.4515 57.2741 66.749 56.6296 66.0581 55.9387C61.9244 51.7992 57.7733 47.6713 53.6512 43.5202C50.4987 40.3444 50.5103 36.2513 53.6744 33.0698C57.8023 28.9245 61.9535 24.7965 66.0756 20.6454C66.7839 19.9313 67.527 19.3681 68.543 19.85C69.6171 20.3609 69.6403 21.2957 69.4836 22.3697C69.1004 24.9707 71.1208 27.3859 73.8147 27.6588C76.4273 27.9259 78.8251 25.8358 78.9818 23.1593C79.1386 20.5583 77.0601 18.2534 74.4591 18.1489C74.105 18.1373 73.7392 18.1431 73.3908 18.2186C72.3923 18.445 71.6201 18.1722 71.1556 17.2316C70.697 16.3027 71.1498 15.6118 71.7943 14.9732C72.8451 13.9397 73.8785 12.8889 74.9236 11.8497C78.0819 8.69132 81.2286 5.52136 84.3986 2.38044C87.5802 -0.777905 91.6674 -0.789517 94.849 2.38044C105.09 12.6044 115.326 22.8342 125.55 33.0814C128.795 36.3326 128.784 40.3676 125.556 43.6189C122.287 46.9108 118.995 50.1794 115.616 53.5584C119.895 55.6136 121.956 58.8242 121.027 63.5037C120.383 66.7781 117.445 69.3849 114.171 69.8378C110.281 70.3835 107.407 68.694 104.876 64.2933ZM76.9091 61.7213C80.1372 64.9551 83.2955 68.1077 86.448 71.266C88.7878 73.6057 90.4714 73.6057 92.8112 71.266C96.8578 67.2252 100.899 63.1785 104.939 59.1319C105.584 58.4875 106.286 58.0811 107.21 58.5223C108.115 58.9519 108.336 59.7241 108.208 60.6472C108.191 60.7808 108.173 60.9143 108.167 61.0478C107.964 63.9856 110.095 66.3775 112.899 66.3659C115.669 66.3543 117.805 64.003 117.619 61.1523C117.439 58.4062 115.001 56.5367 112.052 56.9373C111.111 57.0651 110.339 56.8793 109.874 56.02C109.404 55.1434 109.712 54.3828 110.385 53.7267C110.612 53.5061 110.827 53.2855 111.047 53.0649C114.995 49.117 118.949 45.1748 122.891 41.2153C124.894 39.2065 124.888 37.4531 122.862 35.4211C112.725 25.2784 102.588 15.1357 92.4454 4.99884C90.4889 3.0423 88.7297 3.05391 86.7557 5.01626C83.7483 8.01204 80.7526 11.0136 77.751 14.021C77.4839 14.2881 77.2575 14.5958 77.002 14.9035C81.3215 17.3419 83.1155 20.5119 82.4188 24.3437C81.7802 27.862 79.0108 30.5501 75.3938 31.1597C71.7072 31.7809 68.5953 29.9405 66.1801 25.6674C65.942 25.8822 65.6982 26.068 65.4834 26.2886C62.3831 29.3831 59.2828 32.4718 56.1999 35.5779C54.3885 37.4067 54.4001 39.2239 56.229 41.0643C58.9983 43.8569 61.7967 46.6147 64.5545 49.4189C65.077 49.953 65.4602 50.6323 66.0001 51.3696C68.4966 46.6263 71.6956 44.8091 75.7073 45.5C79.1037 46.0863 81.9776 49.0357 82.4653 52.4321C83.0342 56.4148 81.2112 59.5267 76.9091 61.7213Z" fill="white"/>
<path d="M40.5476 27.7631C40.4895 28.8894 40.0773 29.5919 39.0903 29.7545C38.0627 29.9287 37.2557 29.47 37.0525 28.4656C36.4197 25.2724 35.8565 22.0618 35.334 18.8512C35.1714 17.8294 35.7578 17.0979 36.7622 16.8947C37.7724 16.6915 38.5852 17.1676 38.7826 18.1836C39.427 21.4232 39.9844 24.6744 40.5418 27.7573L40.5476 27.7631Z" fill="white"/>
<path d="M92.7705 109.683C92.3119 110.078 91.8068 110.809 91.1275 111.036C90.2392 111.332 89.3857 110.786 89.2 109.84C88.5613 106.559 87.9459 103.267 87.5105 99.9581C87.4408 99.4414 88.2304 98.5531 88.8284 98.2745C89.6702 97.8797 90.6166 98.3267 90.8198 99.2905C91.5107 102.606 92.0796 105.944 92.7763 109.683H92.7705Z" fill="white"/>
<path d="M27.473 40.4545C24.5526 39.9262 21.3885 39.3805 18.2418 38.7709C17.2316 38.5735 16.7032 37.7955 16.8658 36.7911C17.04 35.7228 17.8121 35.1364 18.8978 35.3106C22.062 35.8273 25.2261 36.3731 28.3729 36.9943C29.4411 37.2033 29.9288 38.0277 29.7082 39.1192C29.4934 40.1817 28.7212 40.5242 27.473 40.4603V40.4545Z" fill="white"/>
<path d="M108.992 92.6427C105.909 92.0912 102.698 91.557 99.511 90.9184C98.5124 90.721 98.0363 89.9198 98.2221 88.8864C98.4137 87.8413 99.1569 87.3188 100.161 87.4814C103.372 87.9981 106.577 88.5554 109.77 89.1767C110.78 89.374 111.262 90.181 111.059 91.1971C110.861 92.2015 110.147 92.6833 108.986 92.6427H108.992Z" fill="white"/>
<path d="M33.9116 35.8158C33.2323 35.3803 32.6923 35.1539 32.3034 34.7707C30.3294 32.8432 28.3845 30.8867 26.4569 28.9185C25.5164 27.9547 25.47 27.0142 26.2537 26.2188C27.0317 25.4292 27.9897 25.4641 28.9476 26.3988C30.9506 28.3611 32.9652 30.3119 34.8637 32.3671C35.2875 32.8258 35.5198 33.7605 35.3746 34.3701C35.2469 34.9101 34.4747 35.2932 33.9057 35.8158H33.9116Z" fill="white"/>
<path d="M94.1233 92.1028C94.8084 92.5614 95.3309 92.8169 95.7257 93.2001C97.6706 95.0928 99.5923 97.0145 101.502 98.9478C102.501 99.958 102.565 100.945 101.735 101.74C100.939 102.501 99.9813 102.443 99.0234 101.508C97.0204 99.5458 95.0058 97.5892 93.1073 95.5282C92.6893 95.0753 92.4919 94.1232 92.6544 93.5252C92.7938 92.9911 93.5659 92.6195 94.1291 92.1086L94.1233 92.1028Z" fill="white"/>
</g>
<defs>
<clipPath id="clip0_230_2790">
<rect width="127.977" height="128" fill="white"/>
</clipPath>
</defs>
</svg>