<svg width="258" height="51" viewBox="0 0 258 51" fill="none" xmlns="http://www.w3.org/2000/svg">
<path d="M244.151 33.3165C239.923 33.3165 236.735 30.3031 236.735 25.4614C236.735 20.8567 239.727 17.6063 244.151 17.6063C248.315 17.6063 251.535 20.7213 251.535 25.326C251.502 29.9984 248.477 33.3165 244.151 33.3165ZM251.242 12.3583V15.2362H251.145C248.965 13.0693 246.005 11.952 243.013 11.952C235.792 11.952 230.62 17.674 230.62 25.6307C230.62 33.689 236.084 39.0386 243.338 39.0386C246.591 39.0386 249.323 37.8197 251.307 35.6866H251.372V38.5646C251.372 42.1874 248.77 45.2346 243.631 45.2346C239.89 45.2346 237.581 44.1173 234.751 42.5598L233.32 48.011C236.247 49.8394 240.053 50.8551 243.956 50.8551C253.617 50.8551 257.26 44.8961 257.26 36.6685V12.3583H251.242ZM215.234 11.9858C211.884 11.9858 208.664 13.4417 206.484 16.1504H206.419V12.3583H200.434V39.5126H206.419V25.9016C206.419 20.552 209.087 17.6063 213.153 17.6063C216.731 17.6063 218.812 19.4346 218.812 25.1567V39.5126H224.797V23.5654C224.797 15.3717 220.959 11.9858 215.234 11.9858ZM186.317 39.5126H192.302V12.3583H186.317V39.5126ZM189.31 8.36299C191.554 8.36299 193.376 6.46693 193.376 4.19842C193.376 1.96378 191.554 0.0677168 189.31 0.0677168C187.066 0.0677168 185.309 1.96378 185.309 4.19842C185.309 6.46693 187.066 8.36299 189.31 8.36299ZM110.593 12.3583L103.86 31.7252H103.795L96.9644 12.3583H90.6215L100.998 39.5126H106.69L117.001 12.3583H110.593ZM80.2778 12.3583L73.5446 31.7252H73.5121L66.6813 12.3583H60.3385L70.7147 39.5126H76.4396L86.7508 12.3583H80.2778ZM45.3758 17.6063C48.7912 17.6063 50.938 19.8409 51.6862 23.1252H38.6426C39.5209 19.5362 42.058 17.6063 45.3758 17.6063ZM57.7363 25.5968C57.7363 17.7079 52.7596 11.9858 45.0831 11.9858C37.8295 11.9858 32.3648 17.6063 32.3648 25.9354C32.3648 34.4 38.0897 39.9528 45.6686 39.9528C50.8079 39.9528 54.4835 37.7858 56.6629 34.8402L52.4993 31.1157C51.1657 32.8425 49.0189 34.2984 45.9938 34.2984C42.1556 34.2984 39.3582 31.9622 38.5776 28.1362H57.5736C57.6062 27.5945 57.7363 26.6126 57.7363 25.5968ZM6.47297 6.02677H13.0435C17.6949 6.02677 20.2971 8.53228 20.2971 12.6969C20.2971 16.5906 17.7925 19.3669 12.5881 19.3669H6.47297V6.02677ZM28.364 39.5126L18.6382 24.8858V24.7165C23.7776 23.2268 26.9653 19.3331 26.9653 12.7984C26.9653 5.45118 22.9969 0 13.9868 0H0V39.5126H6.47297V25.4276H11.5473L20.6224 39.5126H28.364Z" fill="white"/>
<path d="M124.059 12.3243L118.79 25.9015L124.059 39.5125H179.714V12.3243H124.059Z" fill="url(#paint0_linear_76_156)"/>
<defs>
<linearGradient id="paint0_linear_76_156" x1="130.962" y1="4.88456" x2="174.428" y2="45.21" gradientUnits="userSpaceOnUse">
<stop stop-color="#BDE0F6"/>
<stop offset="0.1139" stop-color="#BBDCF6"/>
<stop offset="0.2282" stop-color="#B6D0F6"/>
<stop offset="0.3428" stop-color="#AEBCF6"/>
<stop offset="0.4576" stop-color="#A2A0F6"/>
<stop offset="0.5716" stop-color="#937CF6"/>
<stop offset="0.5734" stop-color="#937BF6"/>
<stop offset="0.841" stop-color="#5B47DF"/>
</linearGradient>
</defs>
</svg>
