<?xml version="1.0" encoding="utf-8"?>
<svg xmlns="http://www.w3.org/2000/svg" width="64" height="61" viewBox="0 0 64 61" fill="none">
<g clip-path="url(#clip0_36_1124)">
<path d="M64 45.1232C63.7573 46.2798 63.6218 47.4721 63.2543 48.5872C61.0152 55.3817 56.3444 59.5707 49.2784 60.5385C42.0499 61.5288 36.3662 58.6525 32.3591 52.5317C32.2581 52.378 32.1628 52.2206 32.0179 51.9898C29.267 56.6028 25.3332 59.5011 20.0823 60.4783C16.3611 61.1707 12.7861 60.6188 9.40359 58.9228C2.89954 55.6614 -0.894386 48.4166 0.181261 41.3669C0.842955 37.0323 2.80546 33.4153 6.1754 30.6017C9.53844 27.7937 13.4591 26.5431 17.909 26.6428C15.1393 22.3753 14.2989 17.83 15.4642 12.9717C16.3956 9.09001 18.5049 5.93143 21.6722 3.50229C28.0026 -1.35411 36.7896 -1.13145 42.9801 3.99151C49.0363 9.00282 51.4209 18.6661 46.1769 26.6045C46.9929 26.6491 47.7907 26.6716 48.5847 26.7394C55.9267 27.366 62.2169 33.0101 63.6343 40.238C63.7654 40.9066 63.879 41.5783 64 42.2488V45.1226V45.1232ZM46.9759 17.0642C46.8869 16.1962 46.8605 15.3162 46.6993 14.4613C45.1433 6.20364 37.5956 0.896279 29.3422 2.40595C23.7595 3.42703 19.8728 6.73926 17.9818 12.0761C16.1002 17.386 17.0836 22.3239 20.6737 26.6974C20.8794 26.9476 21.2213 27.1458 21.5374 27.2368C24.1616 27.9906 26.513 29.24 28.5143 31.0978C29.0023 31.5506 29.5047 31.8178 30.1526 31.8554C30.6926 31.8868 31.2314 31.957 31.772 31.969C40.036 32.1471 46.9107 25.384 46.9766 17.0648L46.9759 17.0642ZM31.9947 44.1592C32.0505 44.6283 32.1126 45.5441 32.2731 46.4416C33.668 54.2477 41.3393 59.6999 49.1636 58.4625C57.055 57.215 62.4922 50.2261 61.7747 42.2519C61.0076 33.7245 52.9494 27.524 44.5349 28.9986C44.2702 29.045 43.9836 29.1898 43.7879 29.3742C41.6724 31.37 39.2238 32.7592 36.4177 33.5338C36.1041 33.6204 35.7761 33.8368 35.5653 34.0864C33.2183 36.8617 32.0448 40.0793 31.9953 44.1592H31.9947ZM17.9667 58.6218C23.2528 58.3345 27.8664 55.5297 30.6393 49.8799C30.7741 49.6058 30.7804 49.1931 30.6876 48.8946C29.6251 45.4738 29.5975 42.0543 30.6732 38.6405C30.8249 38.16 30.7942 37.7818 30.5885 37.3459C27.7473 31.3255 21.2771 27.9166 14.6884 28.9816C7.1231 30.2047 1.61316 37.0963 2.18014 44.6265C2.77786 52.5662 9.18094 58.6005 17.9667 58.6218ZM32.0241 35.4518C32.3164 34.9607 32.551 34.5668 32.7981 34.1516H31.2282C31.5017 34.5982 31.7338 34.977 32.0248 35.4518H32.0241Z" fill="white"/>
<path d="M27.7736 15.9942C28.2697 15.9942 28.7219 15.9942 29.1742 15.9942C30.7146 15.9942 32.2543 15.9923 33.7947 15.9948C34.7035 15.9967 35.1953 16.3655 35.2022 17.0416C35.2097 17.7415 34.7035 18.1229 33.7584 18.1235C31.989 18.1248 30.2203 18.1235 28.451 18.1235C28.2258 18.1235 28.0013 18.1235 27.7824 18.1235C27.6174 19.8151 27.4581 21.4439 27.2926 23.1342C29.2582 22.48 31.0413 22.8764 32.8125 23.8166C34.2996 24.6062 35.899 24.5611 37.4613 23.9025C37.6144 23.8379 37.7618 23.7601 37.9161 23.698C38.5238 23.4541 39.0996 23.6428 39.358 24.1666C39.6314 24.7204 39.427 25.3143 38.8054 25.6223C36.4766 26.7745 34.1284 26.7901 31.767 25.7101C31.2765 25.4856 30.7879 25.2453 30.2755 25.0848C28.9377 24.6658 27.7749 24.9982 26.7977 25.9948C26.6522 26.1435 26.5268 26.3141 26.37 26.4489C25.9886 26.7757 25.5577 26.8811 25.1036 26.6158C24.6627 26.358 24.4909 25.9629 24.5856 25.4511C24.839 24.0819 25.1237 22.7177 25.3225 21.3404C25.4731 20.2993 25.5113 19.2418 25.6054 18.1235C24.8942 18.1235 24.2745 18.131 23.6548 18.1216C22.9172 18.1103 22.4337 17.697 22.4167 17.0792C22.3985 16.4426 22.8953 16.0067 23.668 15.996C24.2889 15.9873 24.9105 15.9942 25.6299 15.9942C25.6299 15.0621 25.5985 14.1747 25.6355 13.2897C25.7534 10.483 27.0781 8.41007 29.5956 7.19142C34.0738 5.02382 39.3178 8.25766 39.4696 13.2351C39.4916 13.9564 39.0883 14.465 38.4649 14.5021C37.8452 14.5391 37.4212 14.1044 37.3447 13.353C37.0831 10.7821 35.6437 9.1301 33.3049 8.71614C30.6374 8.24386 27.9938 10.2434 27.7843 12.9447C27.7078 13.9319 27.7717 14.9304 27.7717 15.9935L27.7736 15.9942Z" fill="white"/>
<path d="M42.2318 46.8881C43.0083 48.8939 44.3467 50.1941 46.2898 50.8458C48.6198 51.6273 51.1443 50.7937 52.6847 48.7842C53.3251 47.9487 53.9266 47.7562 54.4866 48.2078C55.0361 48.6512 55.0173 49.2721 54.3794 50.0705C52.5135 52.405 50.0894 53.6123 47.1058 53.1846C43.6926 52.6954 41.3763 50.6971 40.1489 47.462C40.0975 47.3259 40.0579 47.1854 40.009 47.0487C39.9952 47.0104 39.9695 46.9766 39.9193 46.8875C39.1397 46.8875 38.33 46.8932 37.5203 46.8856C36.767 46.8787 36.2966 46.4848 36.2772 45.862C36.2571 45.2248 36.7564 44.7745 37.5215 44.7607C38.1625 44.7494 38.8035 44.7582 39.4753 44.7582V42.6282C38.8581 42.6282 38.2221 42.6313 37.5861 42.6276C36.7865 42.6232 36.3004 42.2393 36.2772 41.6021C36.254 40.9461 36.7664 40.5083 37.5811 40.5014C38.3507 40.4951 39.1209 40.5001 39.9381 40.5001C40.0084 40.312 40.0824 40.1269 40.147 39.9388C41.3355 36.4754 44.7419 34.0036 48.283 34.1359C50.9223 34.235 53.0171 35.4374 54.5619 37.5792C55.0311 38.229 54.9715 38.8487 54.4409 39.2288C53.9222 39.6001 53.2918 39.4477 52.8365 38.818C51.8361 37.4331 50.497 36.6058 48.8161 36.3092C46.2051 35.8488 42.9255 37.9336 42.3071 40.4995C43.9786 40.4995 45.6381 40.4995 47.2983 40.4995C47.5272 40.4995 47.7574 40.4895 47.9851 40.5051C48.6361 40.5497 49.0564 40.978 49.0513 41.5776C49.0457 42.1785 48.6198 42.6138 47.9663 42.6219C46.6128 42.6382 45.2593 42.6276 43.9058 42.6282C43.1814 42.6282 42.4576 42.6282 41.6767 42.6282V44.7243C41.9069 44.7356 42.1258 44.7557 42.3447 44.7563C44.0526 44.7588 45.7598 44.7575 47.4677 44.7582C47.6345 44.7582 47.8013 44.7506 47.9675 44.7632C48.6524 44.8146 49.0777 45.2593 49.0488 45.8852C49.0212 46.4817 48.5954 46.8787 47.9218 46.8831C46.2766 46.8944 44.6315 46.8875 42.9863 46.8881C42.7649 46.8881 42.5435 46.8881 42.2337 46.8881H42.2318Z" fill="white"/>
<path d="M15.9798 44.7286C12.4198 43.69 10.6285 41.8661 10.6956 39.3636C10.7634 36.8253 12.7045 34.9054 16.0224 34.1641C16.0224 33.5287 16.018 32.8696 16.0237 32.211C16.0299 31.4207 16.4288 30.9278 17.0642 30.9096C17.7203 30.8907 18.1436 31.4 18.1505 32.2223C18.1543 32.7222 18.1718 33.2227 18.1449 33.7207C18.1248 34.0857 18.2546 34.2042 18.6178 34.2789C20.1506 34.5925 21.4665 35.3025 22.4537 36.5506C23.0646 37.3233 23.4052 38.2039 23.4798 39.1842C23.535 39.9042 23.1461 40.4292 22.5258 40.4932C21.903 40.5578 21.4552 40.135 21.363 39.3949C21.1648 37.815 19.9876 36.6911 18.1938 36.4032V42.4833C19.3115 43.0245 20.4429 43.3902 21.3624 44.0513C24.2042 46.0928 24.2099 49.8046 21.3825 51.863C20.5985 52.4338 19.6175 52.7624 18.6868 53.0898C18.2697 53.2366 18.1104 53.3627 18.143 53.7948C18.1794 54.2708 18.1555 54.7519 18.1499 55.2305C18.1405 56.0082 17.7196 56.4968 17.0755 56.4874C16.437 56.478 16.0312 55.9862 16.0243 55.2003C16.0187 54.5568 16.023 53.914 16.023 53.3018C15.3106 53.0603 14.6137 52.8992 13.9847 52.5975C12.1482 51.7163 10.8995 50.3577 10.7126 48.2278C10.648 47.4946 11.0186 46.9847 11.6446 46.9044C12.2511 46.8272 12.7177 47.2588 12.8237 47.9945C13.0577 49.6164 14.26 50.7686 15.9804 50.9831V44.728L15.9798 44.7286ZM18.1794 50.9875C19.9587 50.7554 21.3762 49.3724 21.3593 47.943C21.3417 46.5049 19.9487 45.1771 18.1794 44.935V50.9875ZM16.0017 36.4145C14.25 36.6052 12.8043 38.0101 12.8319 39.4746C12.8595 40.9272 14.3384 42.3227 16.0017 42.4469V36.4145Z" fill="white"/>
</g>
<defs>
<clipPath id="clip0_36_1124">
<rect width="64" height="60.7687" fill="white"/>
</clipPath>
</defs>
</svg>