<?xml version="1.0" encoding="utf-8"?>
<svg xmlns="http://www.w3.org/2000/svg" width="60" height="64" viewBox="0 0 60 64" fill="none">
<g clip-path="url(#clip0_237_2791)">
<path d="M59.2628 47.7251L54.6327 43.1575C54.6327 43.1575 54.0696 42.7821 53.3813 42.7821C52.693 42.7821 51.7545 43.2826 51.7545 43.2826L43.5729 36.4938C43.5729 36.4938 41.5556 34.5854 36.9255 34.5854C32.2953 34.5854 31.4819 36.0871 28.9272 36.0871H19.6562C18.092 36.0871 16.0898 38.4022 16.0898 38.4022C16.0898 38.4022 9.51996 32.3955 9.14455 32.0826C8.76913 31.7698 7.51774 30.7687 6.51662 30.4558C5.51551 30.143 5.20266 30.2681 4.01384 30.2681C2.82501 30.2681 1.13563 31.5821 0.722046 31.9262C0.30846 32.2704 0.0719471 32.9586 0.00937741 33.6469C-0.0531922 34.3352 0.197086 35.2111 0.509935 35.524C0.822783 35.8368 11.5848 46.7239 12.9613 48.1005C14.3378 49.477 16.4652 50.6033 17.9669 50.9787C19.4685 51.3541 24.4741 52.1675 26.7266 52.1675H34.8607C35.7367 52.1675 37.1132 52.9183 37.9291 53.4471C38.745 53.9758 39.7411 55.1709 39.7411 55.1709C39.7411 55.1709 39.2406 55.734 38.8651 56.2971C38.4897 56.8602 38.8651 58.7373 39.178 59.0502C39.4908 59.363 43.1199 63.1172 43.4953 63.43C43.8707 63.7429 44.559 63.9306 45.2472 63.9932C45.9355 64.0557 46.6238 63.6803 47.0618 63.3675C47.4997 63.0546 58.95 51.4792 59.2628 51.1038C59.5757 50.7284 59.7008 50.2904 59.7634 49.3519C59.826 48.4133 59.2628 47.7251 59.2628 47.7251ZM39.4283 52.1049C38.9277 51.667 37.1758 50.4156 35.6115 50.2278C34.0473 50.0401 27.978 50.2904 24.7244 49.9776C21.4708 49.6647 19.1557 49.039 18.1546 48.9139C17.1535 48.7887 15.3665 47.645 14.7583 47.1219C14.1501 46.5988 2.66859 34.9296 2.13675 34.3977C1.6049 33.8659 2.38702 33.0838 2.88758 32.7709C3.38814 32.4581 4.51439 32.1452 5.51551 32.2704C6.51662 32.3955 7.01718 32.8335 7.33003 33.1463C7.64288 33.4592 15.1512 40.2793 15.1512 40.2793C15.1512 40.2793 14.9635 40.6547 15.0261 41.4055C15.0887 42.1564 15.1512 43.0323 15.5267 43.4703C15.9021 43.9083 16.6529 44.8469 17.5915 44.8469C18.53 44.8469 35.4864 44.7843 35.4864 44.7843C35.4864 44.7843 36.2998 44.7843 36.2998 43.9083C36.2998 43.0323 35.6115 42.7195 35.6115 42.7195H17.7792C17.1535 42.7195 16.9032 41.9061 16.9032 41.2804C16.9032 40.6547 18.2797 38.1519 19.9065 38.1519H29.2294C30.6059 38.1519 33.4216 36.5251 36.9255 36.5251C40.4294 36.5251 41.6808 37.6513 42.2439 38.0268C42.807 38.4022 50.1277 44.5966 50.1277 44.5966L41.1176 53.7318C41.1176 53.7318 39.9288 52.5429 39.4283 52.1049ZM57.4802 50.1784L46.0112 61.6474C45.5845 62.0742 44.8925 62.0742 44.4657 61.6474L41.0457 58.2274C40.619 57.8007 40.619 57.1086 41.0457 56.6819L52.5147 45.2129C52.9414 44.7862 53.6334 44.7862 54.0602 45.2129L57.4802 48.6329C57.907 49.0597 57.907 49.7517 57.4802 50.1784Z" fill="white"/>
<path d="M24.0987 7.27368C17.9306 7.27368 12.93 12.2742 12.93 18.4424C12.93 24.6105 17.9306 29.611 24.0987 29.611C30.2668 29.611 35.2674 24.6105 35.2674 18.4424C35.2674 12.2742 30.2668 7.27368 24.0987 7.27368ZM24.0987 27.5462C19.0706 27.5462 14.9948 23.4705 14.9948 18.4424C14.9948 13.4143 19.0706 9.33848 24.0987 9.33848C29.1268 9.33848 33.2026 13.4143 33.2026 18.4424C33.2026 23.4705 29.1268 27.5462 24.0987 27.5462Z" fill="white"/>
<path d="M8.06397 17.4725H6.40837C5.91525 17.4725 5.5155 17.8723 5.5155 18.3654V18.5506C5.5155 19.0437 5.91525 19.4435 6.40837 19.4435H8.06397C8.55708 19.4435 8.95683 19.0437 8.95683 18.5506V18.3654C8.95683 17.8723 8.55708 17.4725 8.06397 17.4725Z" fill="white"/>
<path d="M41.5387 17.4725H39.8831C39.39 17.4725 38.9903 17.8723 38.9903 18.3654V18.5506C38.9903 19.0437 39.39 19.4435 39.8831 19.4435H41.5387C42.0318 19.4435 42.4316 19.0437 42.4316 18.5506V18.3654C42.4316 17.8723 42.0318 17.4725 41.5387 17.4725Z" fill="white"/>
<path d="M24.0661 0H23.8809C23.3878 0 22.9881 0.399751 22.9881 0.892869V2.54846C22.9881 3.04158 23.3878 3.44133 23.8809 3.44133H24.0661C24.5593 3.44133 24.959 3.04158 24.959 2.54846V0.892869C24.959 0.399751 24.5593 0 24.0661 0Z" fill="white"/>
<path d="M8.0382 9.14492L7.94554 9.30528C7.69884 9.73224 7.84497 10.2784 8.27193 10.5251L9.70543 11.3534C10.1324 11.6001 10.6785 11.4539 10.9252 11.027L11.0179 10.8666C11.2646 10.4397 11.1185 9.89354 10.6915 9.64683L9.258 8.81853C8.83103 8.57182 8.28491 8.71795 8.0382 9.14492Z" fill="white"/>
<path d="M37.0237 25.8915L36.931 26.0519C36.6843 26.4788 36.8304 27.0249 37.2574 27.2717L38.6909 28.1C39.1179 28.3467 39.664 28.2005 39.9107 27.7736L40.0034 27.6132C40.2501 27.1862 40.1039 26.6401 39.677 26.3934L38.2435 25.5651C37.8165 25.3184 37.2704 25.4645 37.0237 25.8915Z" fill="white"/>
<path d="M31.9087 2.75716L31.0804 4.19065C30.8337 4.61762 30.9798 5.16374 31.4068 5.41045L31.5671 5.50311C31.9941 5.74982 32.5402 5.60369 32.7869 5.17672L33.6152 3.74322C33.8619 3.31626 33.7158 2.77014 33.2888 2.52343L33.1285 2.43077C32.7015 2.18406 32.1554 2.33019 31.9087 2.75716Z" fill="white"/>
<path d="M14.8355 2.42194L14.6751 2.51443C14.2479 2.76069 14.1012 3.30666 14.3474 3.73389L15.1742 5.16825C15.4205 5.59547 15.9664 5.74217 16.3937 5.49591L16.5541 5.40342C16.9813 5.15716 17.128 4.61119 16.8818 4.18397L16.055 2.74961C15.8087 2.32238 15.2628 2.17568 14.8355 2.42194Z" fill="white"/>
<path d="M9.70004 25.5491L8.26582 26.3761C7.83864 26.6224 7.69203 27.1684 7.93837 27.5956L8.03089 27.7561C8.27722 28.1832 8.82322 28.3299 9.2504 28.0835L10.6846 27.2565C11.1118 27.0101 11.2584 26.4641 11.0121 26.037L10.9196 25.8765C10.6732 25.4493 10.1272 25.3027 9.70004 25.5491Z" fill="white"/>
<path d="M38.6998 8.83449L37.2654 9.66128C36.8382 9.90755 36.6915 10.4535 36.9378 10.8807L37.0303 11.0412C37.2765 11.4684 37.8225 11.6151 38.2497 11.3689L39.6841 10.5421C40.1113 10.2958 40.258 9.74983 40.0117 9.32261L39.9193 9.16215C39.673 8.73493 39.127 8.58823 38.6998 8.83449Z" fill="white"/>
<path d="M25.0685 13.9061H26.3356C26.3356 13.9061 26.9456 13.9687 26.9456 14.9698C26.9456 15.9709 26.1322 15.8458 26.1322 15.8458H23.6976C23.6976 15.8458 23.0976 15.9397 23.0976 16.6279C23.0976 17.3162 23.7233 17.3788 23.7233 17.3788L25.3501 17.629C25.3501 17.629 26.9456 17.9582 26.9456 20.3277C26.9456 22.6972 25.0216 22.7541 25.0216 22.7541V23.6019C25.0216 23.6019 25.0373 24.2145 24.0987 24.2145C23.1602 24.2145 23.0976 23.6726 23.0976 23.6726V22.9662H21.8462C21.8462 22.9662 21.0954 22.8223 21.0954 21.9463C21.0954 21.0704 21.9088 20.9452 21.9088 20.9452H24.5367C24.5367 20.9452 25.0373 21.0078 25.0373 20.257C25.0373 19.5061 24.4278 19.4436 24.4278 19.4436H23.1558C23.1558 19.4436 21.0954 18.8216 21.0954 16.7237C21.0954 14.6257 23.1602 14.0626 23.1602 14.0626V13.3117C23.1602 13.3117 23.1602 12.686 24.0987 12.686C24.9747 12.686 25.0373 13.2492 25.0373 13.2492L25.0685 13.9061Z" fill="white"/>
</g>
<defs>
<clipPath id="clip0_237_2791">
<rect width="59.7684" height="64" fill="white"/>
</clipPath>
</defs>
</svg>