<svg width="123" height="128" viewBox="0 0 123 128" fill="none" xmlns="http://www.w3.org/2000/svg">
<g clip-path="url(#clip0_230_2789)">
<path d="M100.718 128C98.1902 127.495 95.6136 127.167 93.1455 126.429C91.3817 125.905 89.6901 124.964 88.1069 123.967C86.319 122.844 85.5063 121.058 85.5123 118.811C85.5364 96.4576 85.5364 74.1103 85.5123 51.7567C85.5123 49.4469 86.4514 47.7555 88.1972 46.4933C91.0506 44.4233 94.3194 43.5587 97.6845 43.0727C103.74 42.2018 109.742 42.4101 115.6 44.4359C116.388 44.7073 117.159 45.0607 117.905 45.4457C120.771 46.9414 122.282 49.0871 122.258 52.7349C122.137 74.6657 122.179 96.6028 122.228 118.534C122.228 121.115 121.24 122.92 119.272 124.264C115.979 126.511 112.235 127.23 108.43 127.729C108.003 127.785 107.587 127.893 107.166 127.981H100.725L100.718 128ZM103.837 46.8909C103.819 46.771 103.801 46.6511 103.783 46.5312C100.622 47.0802 97.4497 47.5662 94.3134 48.2162C93.2478 48.4371 92.2004 48.9609 91.2432 49.5289C90.6292 49.8886 89.8045 50.5639 89.7864 51.1193C89.7683 51.6431 90.6412 52.2616 91.2071 52.7223C91.6345 53.0694 92.1823 53.2776 92.7 53.4796C98.9306 55.8589 105.3 55.922 111.711 54.5209C113.36 54.1612 114.955 53.448 116.509 52.7286C117.135 52.4383 117.574 51.6999 118.104 51.1635C117.592 50.6207 117.153 49.9644 116.557 49.5605C115.834 49.0745 114.998 48.74 114.173 48.4497C110.826 47.2506 107.364 46.8783 103.849 46.8972L103.837 46.8909ZM118.074 90.9733C108.58 94.8735 99.1473 94.9051 89.7262 90.986C89.3048 94.1415 89.5817 94.943 92.2606 95.9464C94.5602 96.8047 96.9741 97.4863 99.3881 97.7955C104.68 98.4708 109.947 98.231 115.01 96.2052C118.044 94.9935 118.284 94.5201 118.074 90.9733ZM118.074 99.4995C108.562 103.457 99.1293 103.419 89.6961 99.5185C89.365 102.832 89.7082 103.444 92.4833 104.656C92.7783 104.782 93.0733 104.933 93.3803 104.99C96.342 105.545 99.2858 106.322 102.272 106.562C106.618 106.915 110.934 106.423 115.046 104.731C118.05 103.501 118.303 103.021 118.074 99.5058V99.4995ZM118.062 82.4282C108.562 86.36 99.1353 86.3221 89.7142 82.4472C89.3349 85.6532 89.5817 86.4168 92.2847 87.4139C94.6986 88.2975 97.233 88.9917 99.7674 89.2883C104.975 89.9005 110.164 89.6417 115.136 87.6096C118.038 86.4231 118.321 85.874 118.056 82.4282H118.062ZM118.026 73.9084C108.611 77.7959 99.1834 77.8149 89.7683 73.9273C89.2266 76.8808 89.5035 77.8212 92.0439 78.7426C94.6444 79.6892 97.3654 80.4529 100.092 80.7747C105.257 81.3806 110.411 81.065 115.323 78.9824C118.08 77.8149 118.435 77.1017 118.026 73.9084ZM118.044 116.596C108.617 120.515 99.1774 120.534 89.7563 116.609C89.2326 119.606 89.5817 120.351 92.1041 121.544C94.9334 122.882 97.9494 123.399 101.013 123.614C105.853 123.948 110.657 123.696 115.196 121.714C118.634 120.219 118.236 119.966 118.044 116.596ZM118.044 56.8055C108.568 60.7436 99.1353 60.7246 89.7082 56.8181C89.353 60.0557 89.6359 60.914 92.4051 61.8417C95.102 62.7505 97.9193 63.4321 100.737 63.7539C105.595 64.303 110.429 63.8928 115.046 62.0184C118.026 60.8067 118.278 60.3271 118.116 57.039C118.116 57.0011 118.092 56.957 118.044 56.8118V56.8055ZM89.7202 108.057C89.3229 111.244 89.6901 111.932 92.3449 113.125C92.4532 113.175 92.5676 113.207 92.682 113.258C95.5896 114.494 98.6477 114.968 101.748 115.119C106.546 115.353 111.277 114.993 115.75 112.948C118.194 111.831 118.579 110.885 117.971 108.082C106.377 111.995 101.808 111.995 89.7262 108.057H89.7202ZM118.032 65.3506C108.55 69.2824 99.1293 69.2445 89.7082 65.3632C89.365 68.6197 89.6118 69.396 92.3388 70.3489C94.9515 71.2577 97.6845 71.9583 100.418 72.2675C105.39 72.8292 110.338 72.4758 115.07 70.5509C118.008 69.3581 118.309 68.8091 118.104 65.5589C118.104 65.521 118.08 65.4832 118.032 65.3506Z" fill="white"/>
<path d="M57.9955 128C55.4671 127.501 52.8906 127.173 50.4225 126.441C48.6586 125.917 46.961 124.996 45.3778 123.999C43.5538 122.856 42.723 121.052 42.7291 118.748C42.7652 104.996 42.7652 91.2383 42.7291 77.4866C42.723 75.1263 43.6501 73.416 45.438 72.1159C48.0145 70.2416 50.9462 69.3833 53.9802 68.8531C60.2228 67.7613 66.4173 67.9317 72.4793 69.9702C74.0083 70.4877 75.4772 71.3081 76.8377 72.2106C78.6316 73.3971 79.4684 75.1831 79.4623 77.4866C79.4262 91.2004 79.4202 104.908 79.4623 118.622C79.4684 121.083 78.5112 122.863 76.639 124.188C73.8759 126.151 70.7155 126.946 67.4828 127.495C66.3872 127.678 65.2916 127.83 64.1959 128H57.9894H57.9955ZM60.8128 81.0082C65.1531 80.9892 69.1443 80.5916 72.8646 78.8119C73.7856 78.3702 74.508 77.4803 75.3267 76.7987C74.502 76.0856 73.7675 75.1642 72.8345 74.6908C69.8968 73.2014 66.6942 72.7407 63.4675 72.564C58.5493 72.2926 53.6852 72.6334 49.1161 74.7981C48.2673 75.202 47.6232 76.0603 46.8828 76.7104C47.6353 77.3856 48.2914 78.2755 49.1523 78.7109C52.9267 80.6043 56.9962 80.9829 60.8128 81.0145V81.0082ZM46.8948 90.9606C46.636 94.4254 46.9249 94.9239 49.8325 96.1672C50.1275 96.2934 50.4285 96.3881 50.7295 96.4954C54.0344 97.726 57.4717 98.0921 60.9392 98.0921C65.135 98.0921 69.2827 97.6819 73.1535 95.7759C75.4952 94.621 75.8685 93.6933 75.1762 91.0174C65.7792 94.8987 56.3761 94.8735 46.8888 90.9606H46.8948ZM75.2725 82.4408C65.7551 86.3662 56.328 86.3347 46.9008 82.4281C46.6239 85.8487 46.8527 86.3157 49.7362 87.5653C53.2819 89.0989 57.0263 89.528 60.8248 89.5407C64.8641 89.5596 68.8433 89.162 72.6117 87.5022C75.3267 86.3031 75.6457 85.6783 75.2725 82.4408ZM75.2605 116.609C65.8093 120.54 56.352 120.521 46.8948 116.583C46.648 120.08 46.9189 120.54 49.9228 121.815C50.3261 121.986 50.7295 122.188 51.1509 122.27C53.5588 122.743 55.9607 123.393 58.3988 123.601C63.305 124.018 68.163 123.633 72.7743 121.588C75.3748 120.433 75.6939 119.72 75.2605 116.615V116.609ZM75.3267 99.4994C65.8032 103.469 56.346 103.431 46.8888 99.4994C46.6721 103.034 46.961 103.52 49.9409 104.744C50.1636 104.832 50.3803 104.952 50.6091 104.996C53.5287 105.539 56.4303 106.315 59.374 106.555C63.7565 106.921 68.1088 106.435 72.2505 104.744C75.2906 103.501 75.5253 103.053 75.3207 99.5057L75.3267 99.4994ZM75.2966 108.057C65.8333 112.002 56.3641 111.995 46.9008 108.038C46.6299 111.503 46.9309 112.008 49.8987 113.264C52.8124 114.494 55.8644 114.968 58.9707 115.132C63.612 115.372 68.1931 115.012 72.5455 113.169C75.3387 111.983 75.6217 111.364 75.2966 108.063V108.057Z" fill="white"/>
<path d="M0 92.7214C1.13776 89.7615 3.49153 88.2469 6.18241 87.3255C14.2009 84.5613 22.2555 84.5865 30.304 87.2434C31.1288 87.5148 31.9234 87.9313 32.6939 88.3542C35.3908 89.8183 36.7935 91.9578 36.7272 95.3468C36.5768 103.09 36.643 110.847 36.7032 118.597C36.7212 121.102 35.752 122.913 33.8136 124.245C30.4967 126.53 26.7222 127.268 22.8815 127.76C22.412 127.823 21.9485 127.924 21.4849 128.013H15.0437C14.7005 127.931 14.3574 127.849 14.0203 127.773C11.3896 127.18 8.70474 126.763 6.14629 125.936C3.44337 125.065 1.07756 123.525 0.0120397 120.502V92.7277L0 92.7214ZM16.958 89.528C15.5433 89.73 12.7922 89.9193 10.1375 90.5567C8.28335 91.0048 6.50146 91.9388 4.79784 92.8792C3.79854 93.4282 3.83466 94.1414 4.77376 94.7977C5.71888 95.4604 6.74828 96.0725 7.82584 96.4386C14.1046 98.5843 20.4856 98.6348 26.8607 97.0381C28.6004 96.6027 30.2619 95.7002 31.8572 94.8167C32.8324 94.2739 32.7903 93.5292 31.8752 92.8665C31.1047 92.2986 30.2499 91.8189 29.371 91.4529C25.8132 89.9509 22.0568 89.6416 16.9459 89.5343L16.958 89.528ZM32.417 99.4805C27.9081 101.557 23.1886 102.415 18.2884 102.415C13.3822 102.415 8.67464 101.5 4.14167 99.4363C3.85874 102.964 4.20187 103.538 7.22987 104.763C7.4526 104.851 7.66932 104.971 7.89807 105.015C10.7816 105.552 13.6471 106.328 16.5547 106.555C21.2261 106.915 25.8554 106.423 30.2137 104.416C32.6157 103.311 32.9829 102.428 32.411 99.4868L32.417 99.4805ZM4.15371 116.583C3.95506 120.004 3.62998 120.099 6.96499 121.733C7.3924 121.941 7.84992 122.105 8.30743 122.251C12.5394 123.633 16.8797 123.948 21.2742 123.608C24.543 123.355 27.7456 122.8 30.7134 121.235C32.706 120.181 33.1394 118.931 32.3689 116.653C22.9598 120.528 13.5568 120.509 4.15973 116.583H4.15371ZM4.11759 108.026C3.92496 111.636 4.15371 112.008 7.16365 113.27C10.0773 114.494 13.1414 114.974 16.2476 115.125C21.0936 115.359 25.8734 114.993 30.3763 112.872C32.6939 111.781 33.1033 110.701 32.399 108.101C22.9959 111.983 13.5929 111.983 4.12361 108.026H4.11759Z" fill="white"/>
<path d="M115.172 4.16527H99.8637V0H122.125V23.3318H118.158V7.53535C117.99 7.40282 117.815 7.2766 117.646 7.14407C117.412 7.57322 117.255 8.0781 116.93 8.41258C104.342 21.6342 91.7429 34.8368 79.1613 48.0584C78.5172 48.74 77.8731 48.9924 76.9761 48.9924C63.5338 48.9672 50.0914 48.9798 36.649 48.9609C35.8002 48.9609 35.1621 49.1817 34.518 49.7813C24.4527 59.0522 14.3634 68.2978 4.27412 77.5497C4.00924 77.7959 3.73233 78.0231 3.37113 78.3323C2.48621 77.2784 1.62537 76.256 0.70433 75.1579C3.2989 72.7723 5.82724 70.4435 8.36161 68.1211C16.5607 60.5984 24.7658 53.0819 32.9468 45.5403C33.5849 44.9534 34.2109 44.6883 35.0718 44.6883C48.5142 44.7135 61.9565 44.7135 75.3989 44.682C76.0009 44.682 76.7654 44.4422 77.1748 44.0193C89.6359 31.0186 102.061 17.9864 114.486 4.95415C114.655 4.77744 114.805 4.58811 115.172 4.16527Z" fill="white"/>
</g>
<defs>
<clipPath id="clip0_230_2789">
<rect width="122.258" height="128" fill="white"/>
</clipPath>
</defs>
</svg>
